<svg width="18" height="18" viewBox="0 0 18 18" xmlns="http://www.w3.org/2000/svg">
    <path d="M6.162 17.987c.034.006.066.01.096.013h.11c.296-.025.411-.257.411-.459 0-.22-.009-.801-.013-1.57-2.504.557-3.035-1.238-3.035-1.238-.41-1.067-1-1.35-1-1.35-.82-.571.063-.563.063-.563.905.068 1.378.95 1.378.95.802 1.409 2.108 1.003 2.62.765.082-.598.316-1.004.573-1.233-2-.234-4.103-1.026-4.103-4.563 0-1.008.351-1.832.928-2.475-.095-.234-.4-1.17.09-2.444 0 0 .756-.247 2.477.945a8.393 8.393 0 0 1 2.256-.31 8.602 8.602 0 0 1 2.256.31c1.72-1.192 2.472-.945 2.472-.945.49 1.27.185 2.21.09 2.444.577.643.927 1.467.927 2.475 0 3.546-2.107 4.325-4.11 4.554.324.283.612.846.612 1.71 0 1.233-.01 2.228-.01 2.529 0 .247.163.535.623.446 3.561-1.22 6.142-4.676 6.142-8.749C18.015 4.131 13.98 0 9.008 0 4.037 0 .002 4.131.002 9.23c0 4.076 2.58 7.533 6.16 8.757z" fill="#5A7184" fill-rule="evenodd"/>
</svg>
