<svg
  role="img"
  aria-labelledby="unomena-title"
  xmlns="http://www.w3.org/2000/svg"
  xmlns:xlink="http://www.w3.org/1999/xlink"
  version="1.1"
  x="0px"
  y="0px"
  width="65.945px"
  height="11.473px"
  viewBox="0 0 65.945 11.473"
  enable-background="new 0 0 65.945 11.473"
  xml:space="preserve"
>
  <title id="unomena-title">UNOMENA</title>
  <g>
    <path
      fill="#5a7184"
      d="M1.315,6.57V1.963h2.309v4.56c0,1.184,0.598,1.747,1.512,1.747c0.915,0,1.512-0.539,1.512-1.688V1.963   h2.309v4.548c0,2.649-1.512,3.81-3.845,3.81S1.315,9.137,1.315,6.57z"
    ></path>
    <path
      fill="#5a7184"
      d="M10.305,1.963h2.122L15.802,6.3V1.963h2.25v8.205H16.06l-3.504-4.501v4.501h-2.251V1.963z"
    ></path>
    <path
      fill="#5a7184"
      d="M19.224,6.089V6.066c0-2.356,1.899-4.267,4.431-4.267c2.532,0,4.407,1.887,4.407,4.243v0.023   c0,2.356-1.899,4.267-4.431,4.267C21.1,10.332,19.224,8.446,19.224,6.089z M25.742,6.089V6.066c0-1.184-0.856-2.215-2.11-2.215   c-1.243,0-2.075,1.008-2.075,2.192v0.023c0,1.184,0.856,2.215,2.099,2.215C24.909,8.281,25.742,7.273,25.742,6.089z"
    ></path>
    <path
      fill="#5a7184"
      d="M29.246,1.963h2.403l1.958,3.177l1.958-3.177h2.403v8.205h-2.262V5.456l-2.098,3.211h-0.047L31.473,5.48   v4.688h-2.227V1.963z"
    ></path>
    <path
      fill="#5a7184"
      d="M39.257,1.963h6.599v1.934h-4.349V5.14h3.938v1.793h-3.938v1.301h4.407v1.934h-6.658V1.963z"
    ></path>
    <path
      fill="#5a7184"
      d="M47.074,1.963h2.121L52.572,6.3V1.963h2.25v8.205h-1.993l-3.504-4.501v4.501h-2.25V1.963z"
    ></path>
    <path
      fill="#5a7184"
      d="M59.112,1.905h2.192l3.493,8.264h-2.438L61.76,8.703h-3.165l-0.586,1.465h-2.391L59.112,1.905z    M61.104,6.933L60.19,4.6l-0.926,2.333H61.104z"
    ></path>
  </g>
</svg>