<svg width="21" height="14" viewBox="0 0 21 14" xmlns="http://www.w3.org/2000/svg">
    <path d="m14.457 13.923.513-.022c1.275-.059 2.47-.153 3.031-.305a2.377 2.377 0 0 0 1.698-1.681c.347-1.306.394-3.842.4-4.495v-.313c-.006-.653-.053-3.189-.4-4.495A2.412 2.412 0 0 0 18 .904C17.44.752 16.245.658 14.97.599l-.513-.022C12.914.517 11.362.504 10.761.5h-.522C9.07.506 4.31.55 3 .904A2.412 2.412 0 0 0 1.3 2.612C.953 3.918.907 6.454.901 7.107L.9 7.223v.197c.007.653.053 3.189.401 4.495.221.831.872 1.459 1.698 1.681 1.31.354 6.07.398 7.24.403h.522c.601-.003 2.153-.016 3.696-.076zm-5.92-3.805v-5.71l5.017 2.856-5.018 2.854z" fill="#5A7184" fill-rule="nonzero"/>
</svg>
