<svg width="16" height="17" viewBox="0 0 16 17" xmlns="http://www.w3.org/2000/svg">
    <path d="M14.75 16.125c.619 0 1.125-.51 1.125-1.136V1.511c0-.626-.506-1.136-1.125-1.136H1.246A1.13 1.13 0 0 0 .125 1.511v13.478a1.13 1.13 0 0 0 1.121 1.136H14.75zM3.718 5.332a1.354 1.354 0 0 1 0-2.707c.745 0 1.353.608 1.353 1.354 0 .748-.604 1.353-1.353 1.353zm4.968 8.543H6.35V6.359h2.24v1.026h.031c.313-.59 1.076-1.213 2.212-1.213 2.362 0 2.802 1.558 2.802 3.583v4.12H11.3v-3.656c0-.872-.017-1.994-1.213-1.994-1.216 0-1.402.95-1.402 1.93v3.72zm-3.797 0H2.55V6.359h2.338v7.516z" fill="#5A7184" fill-rule="nonzero"/>
</svg>
