<svg width="18" height="16" viewBox="0 0 18 16" xmlns="http://www.w3.org/2000/svg">
    <path d="M5.665 15.56c6.784 0 10.496-5.62 10.496-10.496 0-.16 0-.32-.011-.48A7.93 7.93 0 0 0 18 2.676a7.396 7.396 0 0 1-2.124.572 3.68 3.68 0 0 0 1.621-2.033 7.263 7.263 0 0 1-2.341.89A3.68 3.68 0 0 0 12.461.94a3.687 3.687 0 0 0-3.69 3.69c0 .285.035.57.092.845a10.486 10.486 0 0 1-7.607-3.86 3.661 3.661 0 0 0-.502 1.86c0 1.28.65 2.41 1.644 3.073A3.715 3.715 0 0 1 .731 6.08v.046a3.69 3.69 0 0 0 2.958 3.62 3.9 3.9 0 0 1-.97.126 4.65 4.65 0 0 1-.697-.057 3.696 3.696 0 0 0 3.449 2.558A7.388 7.388 0 0 1 .89 13.95c-.309 0-.594-.011-.891-.045a10.425 10.425 0 0 0 5.665 1.656z" fill="#5A7184" fill-rule="nonzero"/>
</svg>
