<?xml version="1.0" encoding="UTF-8"?>
<svg width="103px" height="25px" viewBox="0 0 103 25" version="1.1" xmlns="http://www.w3.org/2000/svg" xmlns:xlink="http://www.w3.org/1999/xlink">
    <!-- Generator: Sketch 51.3 (57544) - http://www.bohemiancoding.com/sketch -->
    <title>Logo2_White</title>
    <desc>Created with Sketch.</desc>
    <defs>
        <polygon id="path-1" points="0 0.00326923077 5.26452985 0.00326923077 5.26452985 5.27159615 0 5.27159615"></polygon>
    </defs>
    <g id="Symbols" stroke="none" stroke-width="1" fill="none" fill-rule="evenodd">
        <g id="Navigation/Footer" transform="translate(-30.000000, -60.000000)">
            <g id="Logos/upbound-white" transform="translate(30.000000, 60.000000)">
                <g id="Page-1">
                    <path d="M73.2621321,9.49669231 L73.2108243,14.8861154 C73.2108243,19.7872692 68.4951153,20.7807308 66.8542254,20.7807308 C63.4398522,20.7807308 60.5571974,18.7003462 60.5571974,14.8861154 L60.5571974,9.49669231 C60.5571974,8.30476923 61.2455295,7.58957692 62.3573914,7.58957692 C63.4953877,7.58957692 64.1835276,8.30476923 64.1835276,9.49669231 L64.1835276,14.4766923 C64.1835276,16.4101538 65.1602981,17.4695769 66.8542254,17.4695769 C68.6540351,17.4695769 69.6361862,16.569 69.6361862,14.4766923 L69.6361862,9.49669231 C69.6361862,8.30476923 70.3243261,7.58957692 71.4625146,7.58957692 C72.5739922,7.58957692 73.2621321,8.30476923 73.2621321,9.49669231" id="Fill-1" fill="#FFFFFF"></path>
                    <path d="M13.4774924,9.73351923 L13.4263767,15.1229423 C13.4263767,20.0240962 8.71047556,21.0175577 7.06958563,21.0175577 C3.6552125,21.0175577 0.772749813,18.9371731 0.772749813,15.1229423 L0.772749813,9.73351923 C0.772749813,8.54159615 1.46088974,7.82640385 2.57275168,7.82640385 C3.71074795,7.82640385 4.39908004,8.54159615 4.39908004,9.73351923 L4.39908004,14.7135192 C4.39908004,16.6469808 5.3756584,17.7064038 7.06958563,17.7064038 C8.86939534,17.7064038 9.85154646,16.8058269 9.85154646,14.7135192 L9.85154646,9.73351923 C9.85154646,8.54159615 10.5396864,7.82640385 11.6778748,7.82640385 C12.7893524,7.82640385 13.4774924,8.54159615 13.4774924,9.73351923" id="Fill-3" fill="#FFFFFF"></path>
                    <path d="M39.9899422,14.1056923 C39.9899422,12.0926154 38.692834,10.7416538 36.8399869,10.7416538 C34.9610056,10.7416538 33.6108601,12.1455 33.6108601,14.1056923 C33.6108601,16.0656923 34.9610056,17.4695385 36.8399869,17.4695385 C38.692834,17.4695385 39.9899422,16.0924231 39.9899422,14.1056923 M43.695444,14.1056923 C43.695444,18.1583846 41.2603396,20.7806923 37.5813563,20.7806923 C35.8872369,20.7806923 34.5374757,20.198 33.6373787,19.1385769 L33.5847257,19.1385769 C33.4259981,20.0655 32.7638004,20.6218462 31.8110504,20.6218462 C30.6732463,20.6218462 29.9849142,19.8801154 29.9849142,18.6881923 L29.9849142,3.69569231 C29.9849142,2.50376923 30.6732463,1.76203846 31.8110504,1.76203846 C32.9231045,1.76203846 33.6108601,2.50376923 33.6108601,3.69569231 L33.6108601,9.04646154 L33.6638974,9.04646154 C34.5374757,8.01338462 35.8872369,7.43069231 37.5813563,7.43069231 C41.2603396,7.43069231 43.695444,10.053 43.695444,14.1056923" id="Fill-5" fill="#FFFFFF"></path>
                    <path d="M52.1131767,17.4695769 C54.0188688,17.4695769 55.3157849,16.0924615 55.3157849,14.1057308 C55.3157849,12.0926538 54.0188688,10.7416923 52.1131767,10.7416923 C50.233811,10.7416923 48.9370871,12.0926538 48.9370871,14.1057308 C48.9370871,16.0924615 50.233811,17.4695769 52.1131767,17.4695769 M52.1131767,7.43073077 C56.2158819,7.43073077 59.0212868,10.1324615 59.0212868,14.1057308 C59.0212868,18.0522692 56.2158819,20.7807308 52.1131767,20.7807308 C48.0369901,20.7807308 45.2313931,18.0522692 45.2313931,14.1057308 C45.2313931,10.1324615 48.0369901,7.43073077 52.1131767,7.43073077" id="Fill-7" fill="#FFFFFF"></path>
                    <path d="M87.6265774,13.3456731 L87.6265774,18.7229808 C87.6265774,19.9149038 86.9384375,20.6566346 85.8002491,20.6566346 C84.6887715,20.6566346 84.0006315,19.9149038 84.0006315,18.7229808 L84.0006315,13.7695192 C84.0006315,11.8093269 83.1005345,10.7764423 81.3533778,10.7764423 C79.5272416,10.7764423 78.468417,12.02125 78.468417,14.1139423 L78.468417,18.7229808 C78.468417,19.9149038 77.7806614,20.6566346 76.6420886,20.6566346 C75.530611,20.6566346 74.8424711,19.9149038 74.8424711,18.7229808 L74.8424711,9.55798077 C74.8424711,8.36586538 75.530611,7.62432692 76.6420886,7.62432692 C77.5952229,7.62432692 78.2568442,8.15413462 78.4422826,9.05471154 L78.4949356,9.05471154 C79.3683218,8.02144231 80.6391035,7.46548077 82.3065121,7.46548077 C85.7737304,7.46548077 87.6265774,9.53144231 87.6265774,13.3456731" id="Fill-9" fill="#FFFFFF"></path>
                    <path d="M99.2467069,14.1404423 C99.2467069,12.18025 97.8969457,10.7764038 96.01758,10.7764038 C94.1649252,10.7764038 92.8680091,12.1273654 92.8680091,14.1404423 C92.8680091,16.1271731 94.1649252,17.5042885 96.01758,17.5042885 C97.8969457,17.5042885 99.2467069,16.1004423 99.2467069,14.1404423 M102.873037,3.73044231 L102.873037,18.7229423 C102.873037,19.9148654 102.184897,20.6565962 101.046901,20.6565962 C100.093767,20.6565962 99.4321453,20.10025 99.2734177,19.1733269 L99.2201882,19.1733269 C98.3206677,20.23275 96.9707144,20.8154423 95.2767871,20.8154423 C91.5972274,20.8154423 89.1623151,18.1931346 89.1623151,14.1404423 C89.1623151,10.08775 91.5972274,7.46544231 95.2767871,7.46544231 C96.9707144,7.46544231 98.3206677,8.04813462 99.1938618,9.08121154 L99.2467069,9.08121154 L99.2467069,3.73044231 C99.2467069,2.53851923 99.935039,1.79678846 101.046901,1.79678846 C102.184897,1.79678846 102.873037,2.53851923 102.873037,3.73044231" id="Fill-11" fill="#FFFFFF"></path>
                    <path d="M24.7459229,14.0307692 C24.7459229,12.1015385 23.5028129,10.8069231 21.7272159,10.8069231 C19.9266375,10.8069231 18.6327961,12.1521154 18.6327961,14.0307692 C18.6327961,15.9092308 19.9266375,17.2546154 21.7272159,17.2546154 C23.5028129,17.2546154 24.7459229,15.9346154 24.7459229,14.0307692 M28.2969248,14.0307692 C28.2969248,17.9144231 25.963283,20.4275 22.4376468,20.4275 C20.8396095,20.4275 19.5459603,19.8690385 18.6835274,18.9046154 L18.6327961,18.9046154 L18.6327961,23.1438462 C18.6327961,24.2859615 17.9734808,24.9967308 16.8825647,24.9967308 C15.8173987,24.9967308 15.1576991,24.2859615 15.1576991,23.1438462 L15.1576991,9.61384615 C15.1576991,8.47153846 15.8173987,7.78615385 16.8825647,7.78615385 C17.8210946,7.78615385 18.4554285,8.29403846 18.6076226,9.18230769 L18.6579696,9.18230769 C19.5207868,8.1925 20.8142438,7.63384615 22.4376468,7.63384615 C25.963283,7.63384615 28.2969248,10.1471154 28.2969248,14.0307692" id="Fill-13" fill="#FFFFFF"></path>
                    <g id="Group-17" transform="translate(0.000000, 0.189038)">
                        <mask id="mask-2" fill="white">
                            <use xlink:href="#path-1"></use>
                        </mask>
                        <g id="Clip-16"></g>
                        <path d="M5.26452985,2.63736538 C5.26452985,4.09217308 4.08598694,5.27159615 2.63226493,5.27159615 C1.17854291,5.27159615 0,4.09217308 0,2.63736538 C0,1.18275 1.17854291,0.00313461538 2.63226493,0.00313461538 C4.08598694,0.00313461538 5.26452985,1.18275 5.26452985,2.63736538" id="Fill-15" fill="#FFFFFF" mask="url(#mask-2)"></path>
                    </g>
                </g>
            </g>
        </g>
    </g>
</svg>